<svg width="89" height="89" viewBox="0 0 89 89" fill="none" xmlns="http://www.w3.org/2000/svg">
<path d="M59.3334 77.875V70.4583C59.3334 66.5243 57.7706 62.7514 54.9888 59.9696C52.207 57.1878 48.4341 55.625 44.5 55.625H22.25C18.316 55.625 14.5431 57.1878 11.7613 59.9696C8.97948 62.7514 7.41669 66.5243 7.41669 70.4583V77.875M59.3334 11.5997C62.5142 12.4243 65.3312 14.2818 67.3422 16.8806C69.3531 19.4794 70.4443 22.6723 70.4443 25.9583C70.4443 29.2443 69.3531 32.4373 67.3422 35.0361C65.3312 37.6349 62.5142 39.4924 59.3334 40.317M81.5834 77.875V70.4583C81.5809 67.1717 80.487 63.979 78.4734 61.3815C76.4598 58.784 73.6406 56.9287 70.4584 56.1071M48.2084 25.9583C48.2084 34.1506 41.5672 40.7917 33.375 40.7917C25.1828 40.7917 18.5417 34.1506 18.5417 25.9583C18.5417 17.7661 25.1828 11.125 33.375 11.125C41.5672 11.125 48.2084 17.7661 48.2084 25.9583Z" stroke="#E3A20A" stroke-width="5" stroke-linecap="round" stroke-linejoin="round"/>
</svg>
